#N canvas 181 22 533 382 10;
#X obj 108 45 r arrow-on;
#X obj 202 44 r arrow-off;
#N canvas 776 33 450 300 arrow 1;
#X obj 72 26 inlet on;
#X obj 134 26 inlet off;
#X obj 202 26 inlet note;
#X obj 202 106 phasor~;
#X obj 202 164 dac~;
#X obj 202 52 mtof;
#X floatatom 202 79 5 0 0 0 - - -;
#X msg 134 52 0 160;
#X obj 134 107 line;
#X obj 202 135 *~;
#X msg 73 52 0.3 80;
#X connect 0 0 10 0;
#X connect 1 0 7 0;
#X connect 2 0 5 0;
#X connect 3 0 9 0;
#X connect 5 0 6 0;
#X connect 6 0 3 0;
#X connect 7 0 8 0;
#X connect 8 0 9 1;
#X connect 9 0 4 0;
#X connect 9 0 4 1;
#X connect 10 0 8 0;
#X restore 184 92 pd arrow;
#X obj 314 46 r arrow-note;
#X obj 63 204 r j1;
#N canvas 802 413 450 300 j1 1;
#X obj 34 18 inlet j1;
#X obj 34 58 mtof;
#X floatatom 35 86 5 0 0 0 - - -;
#X obj 36 118 phasor~;
#X obj 36 148 *~;
#X obj 36 180 dac~;
#X obj 105 125 vline~;
#X msg 105 69 0.8 1 0 \, 0 10 5;
#X connect 0 0 1 0;
#X connect 0 0 7 0;
#X connect 1 0 2 0;
#X connect 2 0 3 0;
#X connect 3 0 4 0;
#X connect 4 0 5 0;
#X connect 4 0 5 1;
#X connect 6 0 4 1;
#X connect 7 0 6 0;
#X restore 63 243 pd j1;
#X floatatom 122 179 5 0 0 0 - - -;
#X obj 98 205 f;
#X obj 98 179 bng 15 250 50 0 empty empty empty 17 7 0 10 -262144 -1
-1;
#X obj 289 169 r explosion;
#N canvas 728 382 450 300 explosion 1;
#X obj 24 30 inlet explosion;
#X obj 198 94 phasor~;
#X obj 201 125 *~ 0.8;
#X obj 201 160 dac~;
#X obj 56 128 line;
#X msg 36 93 2000 250;
#X msg 100 94 0 700;
#X obj 56 63 del 250;
#X connect 0 0 5 0;
#X connect 0 0 7 0;
#X connect 1 0 2 0;
#X connect 2 0 3 0;
#X connect 2 0 3 1;
#X connect 4 0 1 0;
#X connect 5 0 4 0;
#X connect 6 0 4 0;
#X connect 7 0 6 0;
#X restore 276 206 pd explosion;
#X obj 259 169 bng 15 250 50 0 empty empty empty 17 7 0 10 -262144
-1 -1;
#X obj 88 45 bng 15 250 50 0 empty empty empty 17 7 0 10 -262144 -1
-1;
#X obj 179 45 bng 15 250 50 0 empty empty empty 17 7 0 10 -262144 -1
-1;
#X obj 282 47 f;
#X obj 276 17 bng 15 250 50 0 empty empty empty 17 7 0 10 -262144 -1
-1;
#X floatatom 301 15 5 0 0 0 - - -;
#X connect 0 0 2 0;
#X connect 1 0 2 1;
#X connect 3 0 2 2;
#X connect 4 0 5 0;
#X connect 6 0 7 1;
#X connect 7 0 5 0;
#X connect 8 0 7 0;
#X connect 9 0 10 0;
#X connect 11 0 10 0;
#X connect 12 0 2 0;
#X connect 13 0 2 1;
#X connect 14 0 2 2;
#X connect 15 0 14 0;
#X connect 16 0 14 1;
