#N canvas 181 22 533 382 10;
#X obj 108 45 r arrow-on;
#X obj 202 44 r arrow-off;
#N canvas 776 33 450 300 arrow 1;
#X obj 72 26 inlet on;
#X obj 134 26 inlet off;
#X obj 202 26 inlet note;
#X obj 202 164 dac~;
#X obj 202 52 mtof;
#X floatatom 202 79 5 0 0 0 - - -;
#X msg 134 52 0 160;
#X obj 134 107 line;
#X obj 202 135 *~;
#X msg 73 52 0.3 80;
#X obj 202 106 osc~;
#X connect 0 0 9 0;
#X connect 1 0 6 0;
#X connect 2 0 4 0;
#X connect 4 0 5 0;
#X connect 5 0 10 0;
#X connect 6 0 7 0;
#X connect 7 0 8 1;
#X connect 8 0 3 0;
#X connect 8 0 3 1;
#X connect 9 0 7 0;
#X connect 10 0 8 0;
#X restore 184 92 pd arrow;
#X obj 314 46 r arrow-note;
#X obj 63 204 r j1;
#X floatatom 122 179 5 0 0 0 - - -;
#X obj 98 205 f;
#X obj 98 179 bng 15 250 50 0 empty empty empty 17 7 0 10 -262144 -1
-1;
#X obj 289 169 r explosion;
#N canvas 728 382 450 300 explosion 0;
#X obj 24 30 inlet explosion;
#X obj 58 161 phasor~;
#X obj 61 192 *~ 0.8;
#X obj 61 227 dac~;
#X obj 56 128 line;
#X msg 36 93 2000 250;
#X msg 100 94 0 700;
#X obj 56 63 del 250;
#X connect 0 0 5 0;
#X connect 0 0 7 0;
#X connect 1 0 2 0;
#X connect 2 0 3 0;
#X connect 2 0 3 1;
#X connect 4 0 1 0;
#X connect 5 0 4 0;
#X connect 6 0 4 0;
#X connect 7 0 6 0;
#X restore 276 206 pd explosion;
#X obj 259 169 bng 15 250 50 0 empty empty empty 17 7 0 10 -262144
-1 -1;
#X obj 88 45 bng 15 250 50 0 empty empty empty 17 7 0 10 -262144 -1
-1;
#X obj 179 45 bng 15 250 50 0 empty empty empty 17 7 0 10 -262144 -1
-1;
#X obj 282 47 f;
#X obj 276 17 bng 15 250 50 0 empty empty empty 17 7 0 10 -262144 -1
-1;
#X floatatom 301 15 5 0 0 0 - - -;
#X obj 274 277 r guy-distance;
#N canvas 742 106 390 405 guy 1;
#X obj 41 40 inlet on;
#X obj 146 38 inlet off;
#X obj 249 37 inlet distance;
#X obj 143 247 mtof;
#X floatatom 146 279 5 0 0 0 - - -;
#X msg 194 61 stop;
#X obj 143 376 dac~;
#X obj 46 225 line;
#X msg 82 186 0 20;
#X msg 24 177 0.4 20;
#X obj 144 341 *~ 0.4;
#X obj 162 127 f;
#X obj 208 120 + 1;
#X obj 157 167 mod 2;
#X obj 135 191 select 0 1;
#X msg 131 218 55;
#X obj 145 306 phasor~;
#X msg 167 217 58;
#X msg 306 204 0 20;
#X msg 240 204 0.4 2;
#X obj 241 256 line;
#X obj 255 148 del 20;
#X obj 253 101 + 25;
#X obj 255 65 * 40;
#X obj 176 87 metro 10;
#X connect 0 0 9 0;
#X connect 0 0 24 0;
#X connect 1 0 5 0;
#X connect 1 0 8 0;
#X connect 2 0 23 0;
#X connect 3 0 4 0;
#X connect 4 0 16 0;
#X connect 5 0 24 0;
#X connect 7 0 10 1;
#X connect 8 0 7 0;
#X connect 9 0 7 0;
#X connect 10 0 6 0;
#X connect 10 0 6 1;
#X connect 11 0 12 0;
#X connect 11 0 13 0;
#X connect 12 0 11 1;
#X connect 13 0 14 0;
#X connect 14 0 15 0;
#X connect 14 1 17 0;
#X connect 15 0 3 0;
#X connect 16 0 10 0;
#X connect 17 0 3 0;
#X connect 18 0 20 0;
#X connect 19 0 20 0;
#X connect 20 0 10 1;
#X connect 21 0 18 0;
#X connect 22 0 24 1;
#X connect 23 0 22 0;
#X connect 24 0 11 0;
#X connect 24 0 19 0;
#X connect 24 0 21 0;
#X restore 131 338 pd guy;
#X obj 78 276 r guy-on;
#X obj 159 276 r guy-off;
#N canvas 802 413 450 300 j1 0;
#X obj 34 18 inlet j1;
#X obj 34 58 mtof;
#X floatatom 35 86 5 0 0 0 - - -;
#X obj 36 118 phasor~;
#X obj 36 148 *~;
#X obj 36 180 dac~;
#X obj 105 125 vline~;
#X msg 105 69 0.8 1 0 \, 0 10 5;
#X connect 0 0 1 0;
#X connect 0 0 7 0;
#X connect 1 0 2 0;
#X connect 2 0 3 0;
#X connect 3 0 4 0;
#X connect 4 0 5 0;
#X connect 4 0 5 1;
#X connect 6 0 4 1;
#X connect 7 0 6 0;
#X restore 63 243 pd j1;
#X obj 56 277 bng 15 250 50 0 empty empty empty 17 7 0 10 -262144 -1
-1;
#X obj 138 277 bng 15 250 50 0 empty empty empty 17 7 0 10 -262144
-1 -1;
#X obj 234 275 f;
#X obj 221 240 bng 15 250 50 0 empty empty empty 17 7 0 10 -262144
-1 -1;
#X floatatom 254 244 5 0 0 0 - - -;
#X connect 0 0 2 0;
#X connect 1 0 2 1;
#X connect 3 0 2 2;
#X connect 4 0 20 0;
#X connect 5 0 6 1;
#X connect 6 0 20 0;
#X connect 7 0 6 0;
#X connect 8 0 9 0;
#X connect 10 0 9 0;
#X connect 11 0 2 0;
#X connect 12 0 2 1;
#X connect 13 0 2 2;
#X connect 14 0 13 0;
#X connect 15 0 13 1;
#X connect 16 0 17 2;
#X connect 18 0 17 0;
#X connect 19 0 17 1;
#X connect 21 0 17 0;
#X connect 22 0 17 1;
#X connect 23 0 17 2;
#X connect 24 0 23 0;
#X connect 25 0 23 1;
