#N canvas 224 369 737 304 10;
#X msg 35 30 bang;
#X obj 388 87 vline~;
#X obj 423 129 *~ 3000;
#X obj 423 156 +~ 100;
#X obj 423 193 osc~;
#X obj 387 222 *~;
#X obj 387 251 *~ 0.2;
#X obj 316 281 dac~;
#X obj 388 29 receive up;
#X obj 139 25 receive arrow;
#X msg 388 57 1 2 0 \, 0 40 2;
#X msg 140 49 1 4 0 \, 0 80 4;
#X obj 142 82 vline~;
#X obj 35 66 send arrow;
#X obj 218 104 phasor~;
#X obj 236 25 receive arrow-note;
#X obj 237 52 mtof;
#X obj 188 143 *~;
#X floatatom 21 99 5 0 0 0 - - -;
#X obj 21 133 send arrow-note;
#X floatatom 232 81 5 0 0 0 - - -;
#X connect 0 0 13 0;
#X connect 1 0 2 0;
#X connect 1 0 5 0;
#X connect 2 0 3 0;
#X connect 3 0 4 0;
#X connect 4 0 5 1;
#X connect 5 0 6 0;
#X connect 6 0 7 0;
#X connect 6 0 7 1;
#X connect 8 0 10 0;
#X connect 9 0 11 0;
#X connect 10 0 1 0;
#X connect 11 0 12 0;
#X connect 12 0 17 0;
#X connect 14 0 17 1;
#X connect 15 0 16 0;
#X connect 16 0 20 0;
#X connect 17 0 7 0;
#X connect 17 0 7 1;
#X connect 18 0 19 0;
#X connect 20 0 14 0;
