#N canvas 429 419 450 300 10;
#X obj 59 102 send play;
#X msg 59 66 bang;
#X obj 264 19 receive play;
#X obj 264 77 vline~;
#X obj 299 119 *~ 3000;
#X obj 299 146 +~ 100;
#X obj 299 183 osc~;
#X obj 263 212 *~;
#X obj 263 241 *~ 0.2;
#X obj 264 272 dac~;
#X msg 264 47 1 4 0 \, 0 40 2;
#X connect 1 0 0 0;
#X connect 2 0 10 0;
#X connect 3 0 4 0;
#X connect 3 0 7 0;
#X connect 4 0 5 0;
#X connect 5 0 6 0;
#X connect 6 0 7 1;
#X connect 7 0 8 0;
#X connect 8 0 9 0;
#X connect 8 0 9 1;
#X connect 10 0 3 0;
